<?xml version="1.0" encoding="UTF-8" standalone="no" ?>
<!DOCTYPE svg PUBLIC "-//W3C//DTD SVG 1.1//EN" "http://www.w3.org/Graphics/SVG/1.1/DTD/svg11.dtd">
<svg xmlns="http://www.w3.org/2000/svg" xmlns:xlink="http://www.w3.org/1999/xlink" version="1.1" width="500" height="500" viewBox="0 0 500 500" xml:space="preserve">
<desc>Created with Fabric.js 3.6.3</desc>
<defs>
</defs>
<g transform="matrix(1.7787123576374502 0.6335210438421321 -0.6335210438421321 1.7787123576374502 -72.18303815647273 560.9981159054832)"  >
<g style=""   >
		<g transform="matrix(1.01 0 0 1.01 28.593100000000003 24.5127)"  >
<rect style="stroke: none; stroke-width: 1; stroke-dasharray: none; stroke-linecap: butt; stroke-dashoffset: 0; stroke-linejoin: miter; stroke-miterlimit: 4; fill: rgb(171,54,137); fill-rule: nonzero; opacity: 1;"  x="-2.35" y="-2.35" rx="0" ry="0" width="4.7" height="4.7" />
</g>
		<g transform="matrix(1.01 0 0 1.01 19.088999999999995 14.998499999999998)"  >
<rect style="stroke: none; stroke-width: 1; stroke-dasharray: none; stroke-linecap: butt; stroke-dashoffset: 0; stroke-linejoin: miter; stroke-miterlimit: 4; fill: rgb(171,54,137); fill-rule: nonzero; opacity: 1;"  x="-2.35" y="-2.35" rx="0" ry="0" width="4.7" height="4.7" />
</g>
		<g transform="matrix(1.01 0 0 1.01 9.594999999999997 14.998499999999998)"  >
<rect style="stroke: none; stroke-width: 1; stroke-dasharray: none; stroke-linecap: butt; stroke-dashoffset: 0; stroke-linejoin: miter; stroke-miterlimit: 4; fill: rgb(171,54,137); fill-rule: nonzero; opacity: 1;"  x="-2.35" y="-2.35" rx="0" ry="0" width="4.7" height="4.7" />
</g>
		<g transform="matrix(1.01 0 0 1.01 4.837900000000003 14.998499999999998)"  >
<rect style="stroke: none; stroke-width: 1; stroke-dasharray: none; stroke-linecap: butt; stroke-dashoffset: 0; stroke-linejoin: miter; stroke-miterlimit: 4; fill: rgb(171,54,137); fill-rule: nonzero; opacity: 1;"  x="-2.35" y="-2.35" rx="0" ry="0" width="4.7" height="4.7" />
</g>
		<g transform="matrix(1.01 0 0 1.01 0.09090000000000265 14.998499999999998)"  >
<rect style="stroke: none; stroke-width: 1; stroke-dasharray: none; stroke-linecap: butt; stroke-dashoffset: 0; stroke-linejoin: miter; stroke-miterlimit: 4; fill: rgb(171,54,137); fill-rule: nonzero; opacity: 1;"  x="-2.35" y="-2.35" rx="0" ry="0" width="4.7" height="4.7" />
</g>
		<g transform="matrix(1.01 0 0 1.01 -4.656099999999997 14.998499999999998)"  >
<rect style="stroke: none; stroke-width: 1; stroke-dasharray: none; stroke-linecap: butt; stroke-dashoffset: 0; stroke-linejoin: miter; stroke-miterlimit: 4; fill: rgb(171,54,137); fill-rule: nonzero; opacity: 1;"  x="-2.35" y="-2.35" rx="0" ry="0" width="4.7" height="4.7" />
</g>
		<g transform="matrix(1.01 0 0 1.01 -9.413199999999998 14.998499999999998)"  >
<rect style="stroke: none; stroke-width: 1; stroke-dasharray: none; stroke-linecap: butt; stroke-dashoffset: 0; stroke-linejoin: miter; stroke-miterlimit: 4; fill: rgb(171,54,137); fill-rule: nonzero; opacity: 1;"  x="-2.35" y="-2.35" rx="0" ry="0" width="4.7" height="4.7" />
</g>
		<g transform="matrix(1.01 0 0 1.01 -18.917299999999997 14.998499999999998)"  >
<rect style="stroke: none; stroke-width: 1; stroke-dasharray: none; stroke-linecap: butt; stroke-dashoffset: 0; stroke-linejoin: miter; stroke-miterlimit: 4; fill: rgb(171,54,137); fill-rule: nonzero; opacity: 1;"  x="-2.35" y="-2.35" rx="0" ry="0" width="4.7" height="4.7" />
</g>
		<g transform="matrix(1.01 0 0 1.01 14.341999999999997 10.2616)"  >
<rect style="stroke: none; stroke-width: 1; stroke-dasharray: none; stroke-linecap: butt; stroke-dashoffset: 0; stroke-linejoin: miter; stroke-miterlimit: 4; fill: rgb(171,54,137); fill-rule: nonzero; opacity: 1;"  x="-2.35" y="-2.35" rx="0" ry="0" width="4.7" height="4.7" />
</g>
		<g transform="matrix(1.01 0 0 1.01 9.594999999999997 10.2616)"  >
<rect style="stroke: none; stroke-width: 1; stroke-dasharray: none; stroke-linecap: butt; stroke-dashoffset: 0; stroke-linejoin: miter; stroke-miterlimit: 4; fill: rgb(171,54,137); fill-rule: nonzero; opacity: 1;"  x="-2.35" y="-2.35" rx="0" ry="0" width="4.7" height="4.7" />
</g>
		<g transform="matrix(1.01 0 0 1.01 4.837900000000003 10.2616)"  >
<rect style="stroke: none; stroke-width: 1; stroke-dasharray: none; stroke-linecap: butt; stroke-dashoffset: 0; stroke-linejoin: miter; stroke-miterlimit: 4; fill: rgb(171,54,137); fill-rule: nonzero; opacity: 1;"  x="-2.35" y="-2.35" rx="0" ry="0" width="4.7" height="4.7" />
</g>
		<g transform="matrix(1.01 0 0 1.01 0.09090000000000265 10.2616)"  >
<linearGradient id="SVGID_288" gradientUnits="userSpaceOnUse" gradientTransform="matrix(1 0 0 1 -2.35 -2.35)"  x1="0" y1="0" x2="71.66959999999999" y2="57.216499999999996">
<stop offset="0%" style="stop-color:rgb(254,141,198);stop-opacity: 1"/>
<stop offset="100%" style="stop-color:rgb(254,209,199);stop-opacity: 1"/>
</linearGradient>
<rect style="stroke: none; stroke-width: 1; stroke-dasharray: none; stroke-linecap: butt; stroke-dashoffset: 0; stroke-linejoin: miter; stroke-miterlimit: 4; fill: url(#SVGID_288); fill-rule: nonzero; opacity: 1;"  x="-2.35" y="-2.35" rx="0" ry="0" width="4.7" height="4.7" />
</g>
		<g transform="matrix(1.01 0 0 1.01 -4.656099999999997 10.2616)"  >
<rect style="stroke: none; stroke-width: 1; stroke-dasharray: none; stroke-linecap: butt; stroke-dashoffset: 0; stroke-linejoin: miter; stroke-miterlimit: 4; fill: rgb(171,54,137); fill-rule: nonzero; opacity: 1;"  x="-2.35" y="-2.35" rx="0" ry="0" width="4.7" height="4.7" />
</g>
		<g transform="matrix(1.01 0 0 1.01 -9.413199999999998 10.2616)"  >
<rect style="stroke: none; stroke-width: 1; stroke-dasharray: none; stroke-linecap: butt; stroke-dashoffset: 0; stroke-linejoin: miter; stroke-miterlimit: 4; fill: rgb(171,54,137); fill-rule: nonzero; opacity: 1;"  x="-2.35" y="-2.35" rx="0" ry="0" width="4.7" height="4.7" />
</g>
		<g transform="matrix(1.01 0 0 1.01 -14.160199999999998 10.2616)"  >
<rect style="stroke: none; stroke-width: 1; stroke-dasharray: none; stroke-linecap: butt; stroke-dashoffset: 0; stroke-linejoin: miter; stroke-miterlimit: 4; fill: rgb(171,54,137); fill-rule: nonzero; opacity: 1;"  x="-2.35" y="-2.35" rx="0" ry="0" width="4.7" height="4.7" />
</g>
		<g transform="matrix(1.01 0 0 1.01 19.088999999999995 5.5146)"  >
<rect style="stroke: none; stroke-width: 1; stroke-dasharray: none; stroke-linecap: butt; stroke-dashoffset: 0; stroke-linejoin: miter; stroke-miterlimit: 4; fill: rgb(171,54,137); fill-rule: nonzero; opacity: 1;"  x="-2.35" y="-2.35" rx="0" ry="0" width="4.7" height="4.7" />
</g>
		<g transform="matrix(1.01 0 0 1.01 14.341999999999997 5.5146)"  >
<rect style="stroke: none; stroke-width: 1; stroke-dasharray: none; stroke-linecap: butt; stroke-dashoffset: 0; stroke-linejoin: miter; stroke-miterlimit: 4; fill: rgb(171,54,137); fill-rule: nonzero; opacity: 1;"  x="-2.35" y="-2.35" rx="0" ry="0" width="4.7" height="4.7" />
</g>
		<g transform="matrix(1.01 0 0 1.01 9.594999999999997 5.5146)"  >
<rect style="stroke: none; stroke-width: 1; stroke-dasharray: none; stroke-linecap: butt; stroke-dashoffset: 0; stroke-linejoin: miter; stroke-miterlimit: 4; fill: rgb(171,54,137); fill-rule: nonzero; opacity: 1;"  x="-2.35" y="-2.35" rx="0" ry="0" width="4.7" height="4.7" />
</g>
		<g transform="matrix(1.01 0 0 1.01 4.837900000000003 5.5146)"  >
<rect style="stroke: none; stroke-width: 1; stroke-dasharray: none; stroke-linecap: butt; stroke-dashoffset: 0; stroke-linejoin: miter; stroke-miterlimit: 4; fill: rgb(171,54,137); fill-rule: nonzero; opacity: 1;"  x="-2.35" y="-2.35" rx="0" ry="0" width="4.7" height="4.7" />
</g>
		<g transform="matrix(1.01 0 0 1.01 0.09090000000000265 5.5146)"  >
<rect style="stroke: none; stroke-width: 1; stroke-dasharray: none; stroke-linecap: butt; stroke-dashoffset: 0; stroke-linejoin: miter; stroke-miterlimit: 4; fill: rgb(85,50,133); fill-rule: nonzero; opacity: 1;"  x="-2.35" y="-2.35" rx="0" ry="0" width="4.7" height="4.7" />
</g>
		<g transform="matrix(1.01 0 0 1.01 -4.656099999999997 5.5146)"  >
<rect style="stroke: none; stroke-width: 1; stroke-dasharray: none; stroke-linecap: butt; stroke-dashoffset: 0; stroke-linejoin: miter; stroke-miterlimit: 4; fill: rgb(171,54,137); fill-rule: nonzero; opacity: 1;"  x="-2.35" y="-2.35" rx="0" ry="0" width="4.7" height="4.7" />
</g>
		<g transform="matrix(1.01 0 0 1.01 -9.413199999999998 5.5146)"  >
<rect style="stroke: none; stroke-width: 1; stroke-dasharray: none; stroke-linecap: butt; stroke-dashoffset: 0; stroke-linejoin: miter; stroke-miterlimit: 4; fill: rgb(171,54,137); fill-rule: nonzero; opacity: 1;"  x="-2.35" y="-2.35" rx="0" ry="0" width="4.7" height="4.7" />
</g>
		<g transform="matrix(1.01 0 0 1.01 -14.160199999999998 5.5146)"  >
<rect style="stroke: none; stroke-width: 1; stroke-dasharray: none; stroke-linecap: butt; stroke-dashoffset: 0; stroke-linejoin: miter; stroke-miterlimit: 4; fill: rgb(171,54,137); fill-rule: nonzero; opacity: 1;"  x="-2.35" y="-2.35" rx="0" ry="0" width="4.7" height="4.7" />
</g>
		<g transform="matrix(1.01 0 0 1.01 -18.917299999999997 5.5146)"  >
<rect style="stroke: none; stroke-width: 1; stroke-dasharray: none; stroke-linecap: butt; stroke-dashoffset: 0; stroke-linejoin: miter; stroke-miterlimit: 4; fill: rgb(171,54,137); fill-rule: nonzero; opacity: 1;"  x="-2.35" y="-2.35" rx="0" ry="0" width="4.7" height="4.7" />
</g>
		<g transform="matrix(1.01 0 0 1.01 19.088999999999995 0.7474000000000003)"  >
<rect style="stroke: none; stroke-width: 1; stroke-dasharray: none; stroke-linecap: butt; stroke-dashoffset: 0; stroke-linejoin: miter; stroke-miterlimit: 4; fill: rgb(171,54,137); fill-rule: nonzero; opacity: 1;"  x="-2.35" y="-2.35" rx="0" ry="0" width="4.7" height="4.7" />
</g>
		<g transform="matrix(1.01 0 0 1.01 14.341999999999997 0.7474000000000003)"  >
<rect style="stroke: none; stroke-width: 1; stroke-dasharray: none; stroke-linecap: butt; stroke-dashoffset: 0; stroke-linejoin: miter; stroke-miterlimit: 4; fill: rgb(171,54,137); fill-rule: nonzero; opacity: 1;"  x="-2.35" y="-2.35" rx="0" ry="0" width="4.7" height="4.7" />
</g>
		<g transform="matrix(1.01 0 0 1.01 9.594999999999997 0.7474000000000003)"  >
<rect style="stroke: none; stroke-width: 1; stroke-dasharray: none; stroke-linecap: butt; stroke-dashoffset: 0; stroke-linejoin: miter; stroke-miterlimit: 4; fill: rgb(241,243,242); fill-rule: nonzero; opacity: 1;"  x="-2.35" y="-2.35" rx="0" ry="0" width="4.7" height="4.7" />
</g>
		<g transform="matrix(1.01 0 0 1.01 4.837900000000003 0.7474000000000003)"  >
<rect style="stroke: none; stroke-width: 1; stroke-dasharray: none; stroke-linecap: butt; stroke-dashoffset: 0; stroke-linejoin: miter; stroke-miterlimit: 4; fill: rgb(171,54,137); fill-rule: nonzero; opacity: 1;"  x="-2.35" y="-2.35" rx="0" ry="0" width="4.7" height="4.7" />
</g>
		<g transform="matrix(1.01 0 0 1.01 0.09090000000000265 0.7474000000000003)"  >
<rect style="stroke: none; stroke-width: 1; stroke-dasharray: none; stroke-linecap: butt; stroke-dashoffset: 0; stroke-linejoin: miter; stroke-miterlimit: 4; fill: rgb(171,54,137); fill-rule: nonzero; opacity: 1;"  x="-2.35" y="-2.35" rx="0" ry="0" width="4.7" height="4.7" />
</g>
		<g transform="matrix(1.01 0 0 1.01 -4.656099999999997 0.7474000000000003)"  >
<rect style="stroke: none; stroke-width: 1; stroke-dasharray: none; stroke-linecap: butt; stroke-dashoffset: 0; stroke-linejoin: miter; stroke-miterlimit: 4; fill: rgb(171,54,137); fill-rule: nonzero; opacity: 1;"  x="-2.35" y="-2.35" rx="0" ry="0" width="4.7" height="4.7" />
</g>
		<g transform="matrix(1.01 0 0 1.01 -9.413199999999998 0.7474000000000003)"  >
<rect style="stroke: none; stroke-width: 1; stroke-dasharray: none; stroke-linecap: butt; stroke-dashoffset: 0; stroke-linejoin: miter; stroke-miterlimit: 4; fill: rgb(241,243,242); fill-rule: nonzero; opacity: 1;"  x="-2.35" y="-2.35" rx="0" ry="0" width="4.7" height="4.7" />
</g>
		<g transform="matrix(1.01 0 0 1.01 -14.160199999999998 0.7474000000000003)"  >
<rect style="stroke: none; stroke-width: 1; stroke-dasharray: none; stroke-linecap: butt; stroke-dashoffset: 0; stroke-linejoin: miter; stroke-miterlimit: 4; fill: rgb(171,54,137); fill-rule: nonzero; opacity: 1;"  x="-2.35" y="-2.35" rx="0" ry="0" width="4.7" height="4.7" />
</g>
		<g transform="matrix(1.01 0 0 1.01 -18.917299999999997 0.7474000000000003)"  >
<rect style="stroke: none; stroke-width: 1; stroke-dasharray: none; stroke-linecap: butt; stroke-dashoffset: 0; stroke-linejoin: miter; stroke-miterlimit: 4; fill: rgb(171,54,137); fill-rule: nonzero; opacity: 1;"  x="-2.35" y="-2.35" rx="0" ry="0" width="4.7" height="4.7" />
</g>
		<g transform="matrix(1.01 0 0 1.01 28.593100000000003 -3.9894999999999947)"  >
<rect style="stroke: none; stroke-width: 1; stroke-dasharray: none; stroke-linecap: butt; stroke-dashoffset: 0; stroke-linejoin: miter; stroke-miterlimit: 4; fill: rgb(171,54,137); fill-rule: nonzero; opacity: 1;"  x="-2.35" y="-2.35" rx="0" ry="0" width="4.7" height="4.7" />
</g>
		<g transform="matrix(1.01 0 0 1.01 19.088999999999995 -3.9894999999999947)"  >
<rect style="stroke: none; stroke-width: 1; stroke-dasharray: none; stroke-linecap: butt; stroke-dashoffset: 0; stroke-linejoin: miter; stroke-miterlimit: 4; fill: rgb(171,54,137); fill-rule: nonzero; opacity: 1;"  x="-2.35" y="-2.35" rx="0" ry="0" width="4.7" height="4.7" />
</g>
		<g transform="matrix(1.01 0 0 1.01 14.341999999999997 -3.9894999999999947)"  >
<rect style="stroke: none; stroke-width: 1; stroke-dasharray: none; stroke-linecap: butt; stroke-dashoffset: 0; stroke-linejoin: miter; stroke-miterlimit: 4; fill: rgb(171,54,137); fill-rule: nonzero; opacity: 1;"  x="-2.35" y="-2.35" rx="0" ry="0" width="4.7" height="4.7" />
</g>
		<g transform="matrix(1.01 0 0 1.01 4.837900000000003 -3.9894999999999947)"  >
<rect style="stroke: none; stroke-width: 1; stroke-dasharray: none; stroke-linecap: butt; stroke-dashoffset: 0; stroke-linejoin: miter; stroke-miterlimit: 4; fill: rgb(171,54,137); fill-rule: nonzero; opacity: 1;"  x="-2.35" y="-2.35" rx="0" ry="0" width="4.7" height="4.7" />
</g>
		<g transform="matrix(1.01 0 0 1.01 0.09090000000000265 -3.9894999999999947)"  >
<rect style="stroke: none; stroke-width: 1; stroke-dasharray: none; stroke-linecap: butt; stroke-dashoffset: 0; stroke-linejoin: miter; stroke-miterlimit: 4; fill: rgb(171,54,137); fill-rule: nonzero; opacity: 1;"  x="-2.35" y="-2.35" rx="0" ry="0" width="4.7" height="4.7" />
</g>
		<g transform="matrix(1.01 0 0 1.01 -4.656099999999997 -3.9894999999999947)"  >
<rect style="stroke: none; stroke-width: 1; stroke-dasharray: none; stroke-linecap: butt; stroke-dashoffset: 0; stroke-linejoin: miter; stroke-miterlimit: 4; fill: rgb(171,54,137); fill-rule: nonzero; opacity: 1;"  x="-2.35" y="-2.35" rx="0" ry="0" width="4.7" height="4.7" />
</g>
		<g transform="matrix(1.01 0 0 1.01 -14.160199999999998 -3.9894999999999947)"  >
<rect style="stroke: none; stroke-width: 1; stroke-dasharray: none; stroke-linecap: butt; stroke-dashoffset: 0; stroke-linejoin: miter; stroke-miterlimit: 4; fill: rgb(171,54,137); fill-rule: nonzero; opacity: 1;"  x="-2.35" y="-2.35" rx="0" ry="0" width="4.7" height="4.7" />
</g>
		<g transform="matrix(1.01 0 0 1.01 -18.917299999999997 -3.9894999999999947)"  >
<rect style="stroke: none; stroke-width: 1; stroke-dasharray: none; stroke-linecap: butt; stroke-dashoffset: 0; stroke-linejoin: miter; stroke-miterlimit: 4; fill: rgb(171,54,137); fill-rule: nonzero; opacity: 1;"  x="-2.35" y="-2.35" rx="0" ry="0" width="4.7" height="4.7" />
</g>
		<g transform="matrix(1.01 0 0 1.01 28.593100000000003 -8.756699999999997)"  >
<rect style="stroke: none; stroke-width: 1; stroke-dasharray: none; stroke-linecap: butt; stroke-dashoffset: 0; stroke-linejoin: miter; stroke-miterlimit: 4; fill: rgb(171,54,137); fill-rule: nonzero; opacity: 1;"  x="-2.35" y="-2.35" rx="0" ry="0" width="4.7" height="4.7" />
</g>
		<g transform="matrix(1.01 0 0 1.01 19.088999999999995 -8.756699999999997)"  >
<rect style="stroke: none; stroke-width: 1; stroke-dasharray: none; stroke-linecap: butt; stroke-dashoffset: 0; stroke-linejoin: miter; stroke-miterlimit: 4; fill: rgb(171,54,137); fill-rule: nonzero; opacity: 1;"  x="-2.35" y="-2.35" rx="0" ry="0" width="4.7" height="4.7" />
</g>
		<g transform="matrix(1.01 0 0 1.01 9.594999999999997 -8.756699999999997)"  >
<rect style="stroke: none; stroke-width: 1; stroke-dasharray: none; stroke-linecap: butt; stroke-dashoffset: 0; stroke-linejoin: miter; stroke-miterlimit: 4; fill: rgb(171,54,137); fill-rule: nonzero; opacity: 1;"  x="-2.35" y="-2.35" rx="0" ry="0" width="4.7" height="4.7" />
</g>
		<g transform="matrix(1.01 0 0 1.01 0.09090000000000265 -8.756699999999997)"  >
<rect style="stroke: none; stroke-width: 1; stroke-dasharray: none; stroke-linecap: butt; stroke-dashoffset: 0; stroke-linejoin: miter; stroke-miterlimit: 4; fill: rgb(171,54,137); fill-rule: nonzero; opacity: 1;"  x="-2.35" y="-2.35" rx="0" ry="0" width="4.7" height="4.7" />
</g>
		<g transform="matrix(1.01 0 0 1.01 -9.413199999999998 -8.756699999999997)"  >
<rect style="stroke: none; stroke-width: 1; stroke-dasharray: none; stroke-linecap: butt; stroke-dashoffset: 0; stroke-linejoin: miter; stroke-miterlimit: 4; fill: rgb(171,54,137); fill-rule: nonzero; opacity: 1;"  x="-2.35" y="-2.35" rx="0" ry="0" width="4.7" height="4.7" />
</g>
		<g transform="matrix(1.01 0 0 1.01 -18.917299999999997 -8.756699999999997)"  >
<rect style="stroke: none; stroke-width: 1; stroke-dasharray: none; stroke-linecap: butt; stroke-dashoffset: 0; stroke-linejoin: miter; stroke-miterlimit: 4; fill: rgb(171,54,137); fill-rule: nonzero; opacity: 1;"  x="-2.35" y="-2.35" rx="0" ry="0" width="4.7" height="4.7" />
</g>
		<g transform="matrix(1.01 0 0 1.01 28.593100000000003 -13.493600000000002)"  >
<rect style="stroke: none; stroke-width: 1; stroke-dasharray: none; stroke-linecap: butt; stroke-dashoffset: 0; stroke-linejoin: miter; stroke-miterlimit: 4; fill: rgb(171,54,137); fill-rule: nonzero; opacity: 1;"  x="-2.35" y="-2.35" rx="0" ry="0" width="4.7" height="4.7" />
</g>
		<g transform="matrix(1.01 0 0 1.01 19.088999999999995 -13.493600000000002)"  >
<rect style="stroke: none; stroke-width: 1; stroke-dasharray: none; stroke-linecap: butt; stroke-dashoffset: 0; stroke-linejoin: miter; stroke-miterlimit: 4; fill: rgb(171,54,137); fill-rule: nonzero; opacity: 1;"  x="-2.35" y="-2.35" rx="0" ry="0" width="4.7" height="4.7" />
</g>
		<g transform="matrix(1.01 0 0 1.01 -18.917299999999997 -13.493600000000002)"  >
<rect style="stroke: none; stroke-width: 1; stroke-dasharray: none; stroke-linecap: butt; stroke-dashoffset: 0; stroke-linejoin: miter; stroke-miterlimit: 4; fill: rgb(171,54,137); fill-rule: nonzero; opacity: 1;"  x="-2.35" y="-2.35" rx="0" ry="0" width="4.7" height="4.7" />
</g>
		<g transform="matrix(1.01 0 0 1.01 23.846100000000003 19.755600000000005)"  >
<rect style="stroke: none; stroke-width: 1; stroke-dasharray: none; stroke-linecap: butt; stroke-dashoffset: 0; stroke-linejoin: miter; stroke-miterlimit: 4; fill: rgb(85,50,133); fill-rule: nonzero; opacity: 1;"  x="-2.35" y="-2.35" rx="0" ry="0" width="4.7" height="4.7" />
</g>
		<g transform="matrix(1.01 0 0 1.01 -23.664300000000004 19.755600000000005)"  >
<rect style="stroke: none; stroke-width: 1; stroke-dasharray: none; stroke-linecap: butt; stroke-dashoffset: 0; stroke-linejoin: miter; stroke-miterlimit: 4; fill: rgb(85,50,133); fill-rule: nonzero; opacity: 1;"  x="-2.35" y="-2.35" rx="0" ry="0" width="4.7" height="4.7" />
</g>
		<g transform="matrix(1.01 0 0 1.01 23.846100000000003 0.7474000000000003)"  >
<rect style="stroke: none; stroke-width: 1; stroke-dasharray: none; stroke-linecap: butt; stroke-dashoffset: 0; stroke-linejoin: miter; stroke-miterlimit: 4; fill: rgb(85,50,133); fill-rule: nonzero; opacity: 1;"  x="-2.35" y="-2.35" rx="0" ry="0" width="4.7" height="4.7" />
</g>
		<g transform="matrix(1.01 0 0 1.01 -23.664300000000004 0.7474000000000003)"  >
<rect style="stroke: none; stroke-width: 1; stroke-dasharray: none; stroke-linecap: butt; stroke-dashoffset: 0; stroke-linejoin: miter; stroke-miterlimit: 4; fill: rgb(85,50,133); fill-rule: nonzero; opacity: 1;"  x="-2.35" y="-2.35" rx="0" ry="0" width="4.7" height="4.7" />
</g>
		<g transform="matrix(1.01 0 0 1.01 9.594999999999997 -3.9894999999999947)"  >
<rect style="stroke: none; stroke-width: 1; stroke-dasharray: none; stroke-linecap: butt; stroke-dashoffset: 0; stroke-linejoin: miter; stroke-miterlimit: 4; fill: rgb(85,50,133); fill-rule: nonzero; opacity: 1;"  x="-2.35" y="-2.35" rx="0" ry="0" width="4.7" height="4.7" />
</g>
		<g transform="matrix(1.01 0 0 1.01 -9.413199999999998 -3.9894999999999947)"  >
<rect style="stroke: none; stroke-width: 1; stroke-dasharray: none; stroke-linecap: butt; stroke-dashoffset: 0; stroke-linejoin: miter; stroke-miterlimit: 4; fill: rgb(85,50,133); fill-rule: nonzero; opacity: 1;"  x="-2.35" y="-2.35" rx="0" ry="0" width="4.7" height="4.7" />
</g>
		<g transform="matrix(1.01 0 0 1.01 14.341999999999997 -8.756699999999997)"  >
<rect style="stroke: none; stroke-width: 1; stroke-dasharray: none; stroke-linecap: butt; stroke-dashoffset: 0; stroke-linejoin: miter; stroke-miterlimit: 4; fill: rgb(85,50,133); fill-rule: nonzero; opacity: 1;"  x="-2.35" y="-2.35" rx="0" ry="0" width="4.7" height="4.7" />
</g>
		<g transform="matrix(1.01 0 0 1.01 4.837900000000003 -8.756699999999997)"  >
<rect style="stroke: none; stroke-width: 1; stroke-dasharray: none; stroke-linecap: butt; stroke-dashoffset: 0; stroke-linejoin: miter; stroke-miterlimit: 4; fill: rgb(85,50,133); fill-rule: nonzero; opacity: 1;"  x="-2.35" y="-2.35" rx="0" ry="0" width="4.7" height="4.7" />
</g>
		<g transform="matrix(1.01 0 0 1.01 -4.656099999999997 -8.756699999999997)"  >
<rect style="stroke: none; stroke-width: 1; stroke-dasharray: none; stroke-linecap: butt; stroke-dashoffset: 0; stroke-linejoin: miter; stroke-miterlimit: 4; fill: rgb(85,50,133); fill-rule: nonzero; opacity: 1;"  x="-2.35" y="-2.35" rx="0" ry="0" width="4.7" height="4.7" />
</g>
		<g transform="matrix(1.01 0 0 1.01 -14.160199999999998 -8.756699999999997)"  >
<rect style="stroke: none; stroke-width: 1; stroke-dasharray: none; stroke-linecap: butt; stroke-dashoffset: 0; stroke-linejoin: miter; stroke-miterlimit: 4; fill: rgb(85,50,133); fill-rule: nonzero; opacity: 1;"  x="-2.35" y="-2.35" rx="0" ry="0" width="4.7" height="4.7" />
</g>
		<g transform="matrix(1.01 0 0 1.01 14.341999999999997 -18.2406)"  >
<rect style="stroke: none; stroke-width: 1; stroke-dasharray: none; stroke-linecap: butt; stroke-dashoffset: 0; stroke-linejoin: miter; stroke-miterlimit: 4; fill: rgb(85,50,133); fill-rule: nonzero; opacity: 1;"  x="-2.35" y="-2.35" rx="0" ry="0" width="4.7" height="4.7" />
</g>
		<g transform="matrix(1.01 0 0 1.01 -14.160199999999998 -18.2406)"  >
<rect style="stroke: none; stroke-width: 1; stroke-dasharray: none; stroke-linecap: butt; stroke-dashoffset: 0; stroke-linejoin: miter; stroke-miterlimit: 4; fill: rgb(85,50,133); fill-rule: nonzero; opacity: 1;"  x="-2.35" y="-2.35" rx="0" ry="0" width="4.7" height="4.7" />
</g>
		<g transform="matrix(1.01 0 0 1.01 9.594999999999997 -23.0078)"  >
<rect style="stroke: none; stroke-width: 1; stroke-dasharray: none; stroke-linecap: butt; stroke-dashoffset: 0; stroke-linejoin: miter; stroke-miterlimit: 4; fill: rgb(171,54,137); fill-rule: nonzero; opacity: 1;"  x="-2.35" y="-2.35" rx="0" ry="0" width="4.7" height="4.7" />
</g>
		<g transform="matrix(1.01 0 0 1.01 -9.413199999999998 -23.0078)"  >
<rect style="stroke: none; stroke-width: 1; stroke-dasharray: none; stroke-linecap: butt; stroke-dashoffset: 0; stroke-linejoin: miter; stroke-miterlimit: 4; fill: rgb(171,54,137); fill-rule: nonzero; opacity: 1;"  x="-2.35" y="-2.35" rx="0" ry="0" width="4.7" height="4.7" />
</g>
		<g transform="matrix(1.01 0 0 1.01 -28.411300000000004 24.5127)"  >
<rect style="stroke: none; stroke-width: 1; stroke-dasharray: none; stroke-linecap: butt; stroke-dashoffset: 0; stroke-linejoin: miter; stroke-miterlimit: 4; fill: rgb(171,54,137); fill-rule: nonzero; opacity: 1;"  x="-2.35" y="-2.35" rx="0" ry="0" width="4.7" height="4.7" />
</g>
		<g transform="matrix(1.01 0 0 1.01 -28.411300000000004 -3.9894999999999947)"  >
<rect style="stroke: none; stroke-width: 1; stroke-dasharray: none; stroke-linecap: butt; stroke-dashoffset: 0; stroke-linejoin: miter; stroke-miterlimit: 4; fill: rgb(171,54,137); fill-rule: nonzero; opacity: 1;"  x="-2.35" y="-2.35" rx="0" ry="0" width="4.7" height="4.7" />
</g>
		<g transform="matrix(1.01 0 0 1.01 -28.411300000000004 -8.756699999999997)"  >
<rect style="stroke: none; stroke-width: 1; stroke-dasharray: none; stroke-linecap: butt; stroke-dashoffset: 0; stroke-linejoin: miter; stroke-miterlimit: 4; fill: rgb(171,54,137); fill-rule: nonzero; opacity: 1;"  x="-2.35" y="-2.35" rx="0" ry="0" width="4.7" height="4.7" />
</g>
		<g transform="matrix(1.01 0 0 1.01 -28.411300000000004 -13.493600000000002)"  >
<rect style="stroke: none; stroke-width: 1; stroke-dasharray: none; stroke-linecap: butt; stroke-dashoffset: 0; stroke-linejoin: miter; stroke-miterlimit: 4; fill: rgb(171,54,137); fill-rule: nonzero; opacity: 1;"  x="-2.35" y="-2.35" rx="0" ry="0" width="4.7" height="4.7" />
</g>
</g>
</g>
<g transform="matrix(1 -2.2305e-16 2.6485e-16 1 330.82650679873063 281.2304465540829)" style=""  ><path fill="#ab3689" opacity="1" d="M-12.13-6.00L-13.42-6.00L-13.42 10.15L-8.25 10.15L-8.25-3.74L-12.13-6.00ZM-13.74-11.27L-13.74-11.66Q-13.74-12.66-13.16-13.37Q-12.58-14.08-10.97-14.08L-10.97-14.08L-10.71-14.08Q-9.09-14.08-8.51-13.37Q-7.93-12.66-7.93-11.66L-7.93-11.66L-7.93-11.27Q-7.93-10.27-8.51-9.56Q-9.09-8.85-10.71-8.85L-10.71-8.85L-10.97-8.85Q-12.58-8.85-13.16-9.56Q-13.74-10.27-13.74-11.27L-13.74-11.27Z"/><path fill="#ab3689" opacity="1" d="M14.87 10.15L9.90 10.15L6.28 4.46L1.11 4.46L1.11 10.15L-4.05 10.15L-4.05-14.08L-2.76-14.08L1.11-11.82L1.11-0.32L6.28-0.32L9.90-6.00L14.87-6.00L14.87-4.71L10.58 2.07L14.87 8.85L14.87 10.15Z"/></g><g transform="matrix(1 -2.2305e-16 2.6485e-16 1 301.2714802017033 274.3314465540829)" style=""  ><path fill="#685C79" opacity="1" d="M-28.08-21.96L-28.08-21.96L-18.98-21.96L-18.98 17.93L-28.08 17.93L-28.08-21.96Z"/><path fill="#685C79" opacity="1" d="M-12.49-21.96L22.73-21.96L22.73-12.85L10.10-12.85Q9.70-12.85 9.70-12.45L9.70-12.45L9.70 17.93L0.60 17.93L0.60-12.45Q0.60-12.85 0.20-12.85L0.20-12.85L-12.49-12.85L-12.49-21.96Z"/></g><g transform="matrix(0.49355250737697826 0 0 0.49355250737697826 554.5011183101 417.20093686573296)"  >
<g style=""   >
		<g transform="matrix(1.35 0 0 1.35 0.6682500000000147 27.742499999999986)"  >
<path style="stroke: none; stroke-width: 1; stroke-dasharray: none; stroke-linecap: butt; stroke-dashoffset: 0; stroke-linejoin: miter; stroke-miterlimit: 4; fill: rgb(0,22,84); fill-rule: nonzero; opacity: 1;"  transform=" translate(-256.405, -262.71999999999997)" d="M 221.31 256.28 c 0 -2.15 15.71 -3.9 35.09 -3.9 s 35.1 1.75 35.1 3.9 s -6 16.78 -35.1 16.78 C 226 273.06 221.31 258.44 221.31 256.28 Z" stroke-linecap="round" />
</g>
		<g transform="matrix(1.35 0 0 1.35 0.6817499999999797 13.783499999999986)"  >
<path style="stroke: none; stroke-width: 1; stroke-dasharray: none; stroke-linecap: butt; stroke-dashoffset: 0; stroke-linejoin: miter; stroke-miterlimit: 4; fill: rgb(85,3,119); fill-rule: nonzero; opacity: 1;"  transform=" translate(-256.40500000000003, -252.38)" d="M 326.6 247.82 c 0 7.42 -31.43 18 -70.2 18 s -70.19 -10.57 -70.19 -18 s 31.43 -8.88 70.19 -8.88 S 326.6 240.4 326.6 247.82 Z" stroke-linecap="round" />
</g>
		<g transform="matrix(1.35 0 0 1.35 0.6682499999999862 7.357499999999995)"  >
<linearGradient id="SVGID_289" gradientUnits="userSpaceOnUse" gradientTransform="matrix(1 0 0 1 0 0)"  x1="186.21" y1="247.62" x2="326.6" y2="247.62">
<stop offset="0%" style="stop-color:rgb(138,65,182);stop-opacity: 1"/>
<stop offset="100%" style="stop-color:rgb(224,5,95);stop-opacity: 1"/>
</linearGradient>
<path style="stroke: none; stroke-width: 1; stroke-dasharray: none; stroke-linecap: butt; stroke-dashoffset: 0; stroke-linejoin: miter; stroke-miterlimit: 4; fill: url(#SVGID_289); fill-rule: nonzero; opacity: 1;"  transform=" translate(-256.405, -247.62)" d="M 258.12 234.19 H 256.4 c -38.76 0 -70.19 6 -70.19 13.44 c 0 5.6 17.92 10.4 43.39 12.42 c 8.26 0.65 17.31 1 26.8 1 c 38.77 0 70.2 -6 70.2 -13.43 S 296.09 234.36 258.12 234.19 Z" stroke-linecap="round" />
</g>
		<g transform="matrix(1.35 0 0 1.35 0.6682529799095605 -0.2835000000000214)"  >
<linearGradient id="SVGID_290" gradientUnits="userSpaceOnUse" gradientTransform="matrix(1 0 0 1 0 0)"  x1="215.39" y1="241.92" x2="297.42" y2="241.92">
<stop offset="0%" style="stop-color:rgb(161,89,211);stop-opacity: 1"/>
<stop offset="100%" style="stop-color:rgb(244,91,161);stop-opacity: 1"/>
</linearGradient>
<path style="stroke: none; stroke-width: 1; stroke-dasharray: none; stroke-linecap: butt; stroke-dashoffset: 0; stroke-linejoin: miter; stroke-miterlimit: 4; fill: url(#SVGID_290); fill-rule: nonzero; opacity: 1;"  transform=" translate(-256.4050022073404, -241.95999999999998)" d="M 259 233.31 l -2.6 0 c -22.65 0 -41 3.86 -41 8.63 c 0 3.57 10.36 6.64 25.12 8 c 4.89 0.43 10.26 0.67 15.89 0.67 c 22.66 0 41 -3.86 41 -8.62 C 297.42 237.34 280.44 233.59 259 233.31 Z" stroke-linecap="round" />
</g>
		<g transform="matrix(1.35 0 0 1.35 0.6682500000000147 -16.361999999999988)"  >
<linearGradient id="SVGID_291" gradientUnits="userSpaceOnUse" gradientTransform="matrix(1 0 0 1 0 0)"  x1="221.31" y1="230.05" x2="291.5" y2="230.05">
<stop offset="2%" style="stop-color:rgb(155,104,196);stop-opacity: 1"/>
<stop offset="6%" style="stop-color:rgb(151,123,204);stop-opacity: 1"/>
<stop offset="16%" style="stop-color:rgb(142,165,221);stop-opacity: 1"/>
<stop offset="25%" style="stop-color:rgb(136,198,235);stop-opacity: 1"/>
<stop offset="34%" style="stop-color:rgb(131,221,244);stop-opacity: 1"/>
<stop offset="43%" style="stop-color:rgb(128,235,250);stop-opacity: 1"/>
<stop offset="50%" style="stop-color:rgb(127,240,252);stop-opacity: 1"/>
<stop offset="59%" style="stop-color:rgb(139,241,252);stop-opacity: 1"/>
<stop offset="75%" style="stop-color:rgb(170,245,253);stop-opacity: 1"/>
<stop offset="96%" style="stop-color:rgb(219,252,255);stop-opacity: 1"/>
<stop offset="100%" style="stop-color:rgb(230,253,255);stop-opacity: 1"/>
</linearGradient>
<path style="stroke: none; stroke-width: 1; stroke-dasharray: none; stroke-linecap: butt; stroke-dashoffset: 0; stroke-linejoin: miter; stroke-miterlimit: 4; fill: url(#SVGID_291); fill-rule: nonzero; opacity: 1;"  transform=" translate(-256.405, -230.05)" d="M 291.5 241.1 c 0 3.71 -15.71 6.72 -35.1 6.72 s -35.09 -3 -35.09 -6.72 s 6 -28.82 35.09 -28.82 C 286.83 212.28 291.5 237.39 291.5 241.1 Z" stroke-linecap="round" />
</g>
		<g transform="matrix(1.35 0 0 1.35 -81.24721759733795 12.676500000000015)"  >
<path style="stroke: none; stroke-width: 1; stroke-dasharray: none; stroke-linecap: butt; stroke-dashoffset: 0; stroke-linejoin: miter; stroke-miterlimit: 4; fill: rgb(255,255,255); fill-rule: nonzero; opacity: 1;"  transform=" translate(-195.72187585382375, -251.56)" d="M 195.72 250.06 c -2.74 0 -2.74 3 0 3 S 198.47 250.06 195.72 250.06 Z" stroke-linecap="round" />
</g>
		<g transform="matrix(1.35 0 0 1.35 -52.23652138102148 18.454500000000035)"  >
<path style="stroke: none; stroke-width: 1; stroke-dasharray: none; stroke-linecap: butt; stroke-dashoffset: 0; stroke-linejoin: miter; stroke-miterlimit: 4; fill: rgb(255,255,255); fill-rule: nonzero; opacity: 1;"  transform=" translate(-217.21128045850259, -255.84000000000003)" d="M 217.2 254.34 c -2.74 0 -2.74 3 0 3 S 220 254.34 217.2 254.34 Z" stroke-linecap="round" />
</g>
		<g transform="matrix(1.35 0 0 1.35 -14.500685194675967 20.911499999999972)"  >
<path style="stroke: none; stroke-width: 1; stroke-dasharray: none; stroke-linecap: butt; stroke-dashoffset: 0; stroke-linejoin: miter; stroke-miterlimit: 4; fill: rgb(255,255,255); fill-rule: nonzero; opacity: 1;"  transform=" translate(-245.16000000000003, -257.66)" d="M 245.16 256.16 c -2.74 0 -2.75 3 0 3 S 247.9 256.16 245.16 256.16 Z" stroke-linecap="round" />
</g>
		<g transform="matrix(1.35 0 0 1.35 21.24731480532406 20.911499999999972)"  >
<path style="stroke: none; stroke-width: 1; stroke-dasharray: none; stroke-linecap: butt; stroke-dashoffset: 0; stroke-linejoin: miter; stroke-miterlimit: 4; fill: rgb(255,255,255); fill-rule: nonzero; opacity: 1;"  transform=" translate(-271.64, -257.66)" d="M 271.64 256.16 c -2.74 0 -2.75 3 0 3 S 274.38 256.16 271.64 256.16 Z" stroke-linecap="round" />
</g>
		<g transform="matrix(1.35 0 0 1.35 55.480782402662015 18.279000000000035)"  >
<path style="stroke: none; stroke-width: 1; stroke-dasharray: none; stroke-linecap: butt; stroke-dashoffset: 0; stroke-linejoin: miter; stroke-miterlimit: 4; fill: rgb(255,255,255); fill-rule: nonzero; opacity: 1;"  transform=" translate(-297.00187585382366, -255.71000000000004)" d="M 297 254.21 c -2.74 0 -2.74 3 0 3 S 299.75 254.21 297 254.21 Z" stroke-linecap="round" />
</g>
		<g transform="matrix(1.35 0 0 1.35 81.7408148053241 12.501000000000015)"  >
<path style="stroke: none; stroke-width: 1; stroke-dasharray: none; stroke-linecap: butt; stroke-dashoffset: 0; stroke-linejoin: miter; stroke-miterlimit: 4; fill: rgb(255,255,255); fill-rule: nonzero; opacity: 1;"  transform=" translate(-316.45000000000005, -251.43)" d="M 316.45 249.93 c -2.74 0 -2.75 3 0 3 S 319.19 249.93 316.45 249.93 Z" stroke-linecap="round" />
</g>
</g>
</g>
<g transform="matrix(0.6284415758721217 0 0 0.6284415758721217 247 197.21993255798822)"  >
<g style=""   >
		<g transform="matrix(1 0 0 1 66.44094161820175 28.61213998245372)"  >
<path style="stroke: none; stroke-width: 1; stroke-dasharray: none; stroke-linecap: butt; stroke-dashoffset: 0; stroke-linejoin: miter; stroke-miterlimit: 4; fill: rgb(171,54,137); fill-rule: nonzero; opacity: 1;"  transform=" translate(-159.09094161820175, -109.91213998245371)" d="M 150.4 110.3 c 1.3 1.8 2.6 4 4.3 5.3 a 7.68 7.68 0 0 0 2.5 1.4 a 9.863 9.863 0 0 0 2.4 0.3 c 0.6 0 0.3 -0.1 -0.8 -0.2 l 0.3 0.1 a 3.331 3.331 0 0 1 -2.3 -1.7 l -0.7 -5 l -0.1 0.2 l 3 -3.9 l 4 -0.5 c -0.5 -0.2 -0.5 -0.2 0.1 0.1 a 3.529 3.529 0 0 1 1.8 1.6 a 6.507 6.507 0 0 0 -8.9 -2.3 a 6.621 6.621 0 0 0 -2.3 8.9 a 8.909 8.909 0 0 0 6.1 4.4 c 4.7 1.2 9.6 -2.5 8.9 -7.5 a 8.589 8.589 0 0 0 -6.4 -6.8 a 8.329 8.329 0 0 0 -2.2 -0.3 c -1.1 -0.1 -0.6 0.3 1.6 1.1 c 1.9 1.5 2.5 1.7 1.7 0.7 l -1.8 -2.4 a 7.292 7.292 0 0 0 -3.9 -3 a 6.707 6.707 0 0 0 -5 0.7 c -2.7 1.6 -4.5 5.8 -2.3 8.8 Z" stroke-linecap="round" />
</g>
		<g transform="matrix(1 0 0 1 68.6529951664806 28.82485584031751)"  >
<path style="stroke: none; stroke-width: 1; stroke-dasharray: none; stroke-linecap: butt; stroke-dashoffset: 0; stroke-linejoin: miter; stroke-miterlimit: 4; fill: rgb(171,54,137); fill-rule: nonzero; opacity: 1;"  transform=" translate(-161.3029951664806, -110.12485584031751)" d="M 152.8 117.7 c 3 2.2 8.6 1.8 12.1 0.8 c 4.5 -1.3 7 -5 7.9 -9.4 c 0.7 -3.3 -1 -7.2 -4.5 -8 c -3.3 -0.7 -7.3 1 -8 4.5 a 4.253 4.253 0 0 0 -0.2 1.1 c -0.2 0.7 -0.2 0.7 0.1 0.1 c -0.6 0.9 -0.3 0.7 0.9 -0.7 c 0.7 -0.2 0.7 -0.3 -0.1 -0.1 c 0.8 -0.1 0.7 -0.1 -0.1 0 c -0.5 0 -0.9 0.1 -1.4 0.1 h -1.4 a 6.107 6.107 0 0 1 1.3 0.3 c -2.7 -2 -7.4 -0.5 -8.9 2.3 c -1.8 3.6 -0.6 6.9 2.3 9 Z" stroke-linecap="round" />
</g>
		<g transform="matrix(1 0 0 1 0.4866446884858249 -16.415778461052803)"  >
<path style="stroke: none; stroke-width: 1; stroke-dasharray: none; stroke-linecap: butt; stroke-dashoffset: 0; stroke-linejoin: miter; stroke-miterlimit: 4; fill: rgb(171,54,137); fill-rule: nonzero; opacity: 1;"  transform=" translate(-93.13664468848583, -64.8842215389472)" d="M 180.3 75.2 C 174 45.3 149.9 16.7 133 19.5 c -5.1 0.9 -7.1 4.2 -17.7 6.8 a 79.578 79.578 0 0 1 -8.7 1.5 A 31.631 31.631 0 0 1 90 25 a 83.418 83.418 0 0 1 -7.6 -4.1 c -8.2 -5.1 -9.2 -8 -12.8 -9.6 C 55.1 4.3 21.4 28.6 9.2 61.4 A 83.393 83.393 0 0 0 4.3 86.7 l 0.2 0.5 a 15.206 15.206 0 0 0 6.1 11.4 a 17.189 17.189 0 0 0 8.8 3 c 7.7 1.1 14.1 -1.6 19.7 -7.1 c 1.7 -1.6 3.4 -3.2 5.1 -4.7 a 62.3 62.3 0 0 1 69.7 -8.9 a 53.886 53.886 0 0 1 17.4 14.8 c 3.3 4.2 6.7 8.3 9.8 12.6 h 0 c 6.4 9.8 18.3 13.7 27.8 10 a 21.346 21.346 0 0 0 4.2 -2.3 c 0.1 0 0.1 -0.1 0.2 -0.1 l 0.2 -0.2 a 21.122 21.122 0 0 0 6.2 -8.3 h 0 a 25 25 0 0 0 1.9 -6.6 h -0.1 A 84.084 84.084 0 0 0 180.3 75.2 Z M 75.5 43.7 L 75 47.1 a 4.6 4.6 0 0 1 -5.3 4 l -7 -1 l -1 7.2 a 4.6 4.6 0 0 1 -5.3 4 L 53 60.9 a 4.6 4.6 0 0 1 -4 -5.3 l 1 -7.2 l -7 -1 a 4.6 4.6 0 0 1 -4 -5.3 h 0 l 0.5 -3.4 a 4.648 4.648 0 0 1 5.3 -4 l 7 1 l 0.9 -6.9 a 4.6 4.6 0 0 1 5.3 -4 l 3.4 0.5 a 4.6 4.6 0 0 1 4 5.3 l -0.9 6.9 l 7 1 a 4.585 4.585 0 0 1 4 5.2 a 6.89 6.89 0 0 1 0.8 0.3 a 6.89 6.89 0 0 1 -0.8 -0.3 Z m 55.6 12.9 a 5.55 5.55 0 0 1 -8.5 -1.8 a 5.611 5.611 0 1 1 10.3 -4.4 a 5.357 5.357 0 0 1 -1.8 6.2 Z M 143 71.2 a 5.55 5.55 0 0 1 -8.5 -1.8 A 5.611 5.611 0 1 1 144.8 65 a 5.505 5.505 0 0 1 -1.8 6.2 Z m 2.2 -26 a 5.55 5.55 0 0 1 -8.5 -1.8 a 5.616 5.616 0 1 1 8.5 1.8 Z m 11.9 14.3 a 5.55 5.55 0 0 1 -8.5 -1.8 a 5.616 5.616 0 1 1 8.5 1.8 Z" stroke-linecap="round" />
</g>
		<g transform="matrix(1 0 0 1 -15.95 19.400000000000002)"  >
<ellipse style="stroke: none; stroke-width: 1; stroke-dasharray: none; stroke-linecap: butt; stroke-dashoffset: 0; stroke-linejoin: miter; stroke-miterlimit: 4; fill: rgb(171,54,137); fill-rule: nonzero; opacity: 1;"  cx="0" cy="0" rx="29.3" ry="14.2" />
</g>
		<g transform="matrix(1 0 0 1 3.6499999999999915 47.561317412916694)"  >
<path style="stroke: rgb(171,54,137); stroke-width: 6; stroke-dasharray: none; stroke-linecap: butt; stroke-dashoffset: 0; stroke-linejoin: miter; stroke-miterlimit: 10; fill: none; fill-rule: nonzero; opacity: 1;"  transform=" translate(-93.8, -126.36131741291669)" d="M 136.6 129.4 c -7.1 4.6 -15 8.6 -23.3 10.7 c -11.5 2.9 -22.7 -1.2 -30.6 -10 a 35.286 35.286 0 0 1 -8.6 -18.4 c 2.7 5.4 5.4 10.9 8 16.3 c 1.8 3.6 2.7 3.9 -1 6.6 a 23.806 23.806 0 0 1 -18.3 4 A 26.191 26.191 0 0 1 51 132.8" stroke-linecap="round" />
</g>
</g>
</g>
<g transform="matrix(1 -2.2305e-16 2.6485e-16 1 218.32488919621187 286.55844655408293)" style=""  ><path fill="#5E0042" opacity="1" d="M-23.55-34.01L-33.28 2.52L-43.66-34.38C-44.13-36.14-46.91-35.77-49.50-35.77L-74.07-35.68C-77.13-35.68-76.76-32.62-75.37-28.82L-56.08 23.74C-54.41 27.08-41.81 29.03-32.54 29.03C-23.36 29.03-11.77 27.45-10.20 23.37L7.60-28.91C8.99-33.36 9.36-35.77 6.30-35.77L-17.43-35.68C-20.02-35.68-22.99-36.05-23.55-34.01Z"/><path fill="#5E0042" opacity="1" d="M71.19 14.84L46.16 14.84L46.16-30.39C45.98-33.36 44.40-35.12 41.53-35.68L17.43-35.68C14.55-35.12 12.98-33.36 12.79-30.39L12.79 29.03L71.19 29.12C74.16 28.94 75.92 27.36 76.48 24.49L76.48 19.48C75.92 16.61 74.16 15.03 71.19 14.84Z"/></g></svg>