<!-- icon666.com - MILLIONS vector ICONS FREE --><svg id="Capa_1" enable-background="new 0 0 512 512" viewBox="0 0 512 512" xmlns="http://www.w3.org/2000/svg"><g><path d="m478.32 129v.08c0 93.14-75.5 168.64-168.64 168.64h-107.36c-93.17 0-168.68-75.55-168.64-168.72 44.12-77.07 127.16-129 222.32-129s178.2 51.93 222.32 129z" fill="#26a6fe"></path><g><path d="m512 256c0 44.92-11.57 87.12-31.9 123.82l-224.1 96.12-191.37-49.94-.05-.01c-5.42-6.1-10.55-12.47-15.38-19.07l15.38-62.74-50.28-3.61c-9.26-26.47-14.3-54.93-14.3-84.57 0-46.22 12.25-89.57 33.68-127 24.46 42.74 60.89 77.74 104.72 100.44 4.39 2.27 8.86 4.43 13.4 6.45 4.53 2.02 9.13 3.92 13.8 5.68 4.65 1.76 9.37 3.39 14.14 4.87 4.74 1.49 9.54 2.83 14.4 4.03 19.81 4.92 40.53 7.53 61.86 7.53 95.16 0 178.2-51.93 222.32-129 21.43 37.43 33.68 80.78 33.68 127z" fill="#0593fc"></path></g><g><path d="m209.44 181.35-104.175 127.85s-83.195 49.48-83.645 49.93c-2.67-6.06-5.12-12.25-7.32-18.56l124.1-111.13 62.85-56.28z" fill="#c94d31"></path><path d="m217.63 189.54-94.574 127.745-92.766 59.605c-3.11-5.79-6-11.71-8.67-17.76.45-.45.91-.9 1.38-1.34l128.8-121.9 57.64-54.54z" fill="#903d32"></path><path d="m234.02 205.93-39.88 44.54-131.56 146.91c-3.84 4.28-8.42 7.46-13.38 9.54-3.35-4.58-6.55-9.28-9.59-14.08-.03-.05-.06-.09-.08-.14-.73-1.13-1.44-2.28-2.13-3.43-.49-.78-.97-1.57-1.42-2.36-.46-.74-.91-1.5-1.34-2.25-1.5-2.56-2.94-5.15-4.35-7.77l135.31-135.32 52.03-52.03z" fill="#77312a"></path><g><path d="m191.31 112.25c0 7.68 2.92 15.35 8.79 21.22l-4.983 26.207-37.077-69.007 20.84-20.84 21.22 21.21c-5.87 5.86-8.79 13.54-8.79 21.21z" fill="#c94d31"></path><path d="m191.26 142.3 3.857 17.377-50.232-19.17-2.805-33.877 15.96-15.96 21.21 21.22s-2.47 7.21-.29 12.72c2.17 5.49 6.44 11.83 12.3 17.69z" fill="#903d32"></path><path d="m195.117 159.677-26.217 4.983c-5.86-5.86-13.54-8.79-21.21-8.78-7.68 0-15.36 2.92-21.21 8.78l-21.21-21.22 20.84-20.84 15.97-15.97z" fill="#77312a"></path><path d="m337.35 228.3-20.84 20.84-41.734-2.643-30.741-37.902 29.675-1.515c11.72 11.72 30.71 11.72 42.43 0z" fill="#c94d31"></path><path d="m316.51 249.14-15.96 15.96-32.874-11.258-23.641-45.247 20.845 7.325c11.72 11.71 30.41 12.01 30.41 12.01z" fill="#903d32"></path><path d="m300.55 265.1-15.97 15.97-20.84 20.84-21.22-21.21c5.86-5.85 8.78-13.53 8.78-21.21s-2.92-15.36-8.78-21.22l1.515-29.675z" fill="#77312a"></path><path d="m294.93 185.87-17.15 17.15-50.411-18.791-23.209-54.829 17.15-17.15z" fill="#d85f39"></path><path d="m277.78 203.02-19.66 19.66-55.215-23.549-18.405-50.071 19.66-19.66z" fill="#c94d31"></path><path d="m258.12 222.68-19.66 19.66-17.15 17.15-73.62-73.62 36.81-36.81z" fill="#903d32"></path></g></g><g><path d="m256 425.98 58.705 35.24-58.705 50.78c-76.14 0-144.52-33.24-191.42-86.01l.01-.01z" fill="#293651"></path><path d="m447.42 425.99c-46.9 52.77-115.28 86.01-191.42 86.01v-86.02l95.71-29.103 95.7 29.103z" fill="#1b2535"></path></g><path d="m332.89 379.82 3.516 32.37-28.146 13.79h-52.26v-.01c0-12.75 5.17-24.28 13.52-32.63 8.36-8.35 19.9-13.52 32.64-13.52z" fill="#d85f39"></path><path d="m368.05 379.82 18.719 23.08-18.719 23.08h-59.79v-.01c0-12.75 2.76-24.28 7.21-32.63 4.47-8.35 10.62-13.52 17.42-13.52z" fill="#c94d31"></path><path d="m480.1 379.82c-9.19 16.6-20.16 32.07-32.67 46.15h-79.38v-46.15z" fill="#903d32"></path></g></svg>